<?xml version="1.0" standalone="no"?>
<!DOCTYPE svg PUBLIC "-//W3C//DTD SVG 20010904//EN"
 "http://www.w3.org/TR/2001/REC-SVG-20010904/DTD/svg10.dtd">
<svg version="1.0" xmlns="http://www.w3.org/2000/svg"
 width="340.000000pt" height="340.000000pt" viewBox="0 0 340.000000 340.000000"
 preserveAspectRatio="xMidYMid meet">
<metadata>
Created by potrace 1.11, written by Peter Selinger 2001-2013
</metadata>
<g transform="translate(0.000000,340.000000) scale(0.100000,-0.100000)"
fill="#000000" stroke="none">
<path d="M989 2840 c0 -25 -2 -166 -2 -315 l-2 -270 -87 0 c-82 1 -88 -1 -89
-20 0 -11 -1 -55 -1 -97 0 -49 -4 -78 -11 -81 -7 -2 -33 -3 -59 -2 l-48 2 0
-237 0 -237 -47 -1 c-90 0 -83 8 -83 -92 l0 -90 -275 0 c-176 0 -275 -4 -276
-10 0 -13 0 -852 0 -887 l1 -28 1673 1 c921 0 1678 4 1684 7 7 5 11 154 11
462 l0 455 -227 0 -228 0 -1 188 c0 103 -1 193 -1 200 -1 8 -23 12 -77 12
l-77 0 -135 135 -135 136 -25 -23 c-14 -13 -75 -74 -137 -135 l-112 -113 -77
0 c-66 0 -76 -2 -76 -17 0 -10 -1 -191 -3 -402 l-2 -385 -120 -38 c-66 -21
-123 -38 -127 -38 -5 0 -8 51 -8 113 l0 112 -162 0 -163 0 -1 213 c-1 117 -4
215 -7 219 -4 3 -33 7 -64 7 l-58 1 -2 200 c-1 110 -2 216 -2 236 l-1 36 -47
-2 c-27 -1 -53 0 -58 2 -6 2 -10 42 -10 98 1 79 -2 95 -15 96 -8 1 -49 2 -90
3 l-75 1 -2 273 c-1 149 -2 292 -2 316 -1 42 -2 44 -31 42 -29 -1 -30 -3 -31
-46z m181 -750 l0 -100 59 0 58 0 1 -212 c0 -117 1 -224 1 -238 1 -24 4 -25
63 -25 l63 0 0 -185 0 -185 -182 -1 c-101 0 -186 -3 -189 -7 -4 -4 -7 -139 -7
-301 l-1 -294 -128 0 -128 0 0 429 0 428 -77 3 -77 3 -1 55 0 55 65 1 65 0 0
235 0 234 58 3 57 3 1 47 c1 26 1 71 0 100 l0 52 149 0 150 0 0 -100z m1631
-356 l56 1 0 -167 -1 -168 -123 0 c-110 0 -123 -2 -124 -17 0 -10 -1 -203 -1
-429 l0 -411 -104 0 -104 0 0 278 0 277 -47 -15 c-123 -38 -180 -55 -200 -60
l-21 -5 1 358 2 358 58 1 58 1 122 122 122 122 125 -123 125 -123 56 0z
m-2246 -794 l0 -395 -240 0 -240 0 -2 390 c-1 215 2 392 7 395 5 3 113 5 242
5 l233 -1 0 -394z m156 391 c3 -15 5 -767 2 -777 -5 -15 -80 -17 -85 -2 -3 11
-3 738 1 773 1 11 80 16 82 6z m2145 -392 l2 -395 -93 -1 -93 -1 0 392 c0 215
4 393 9 396 4 3 46 5 91 5 l83 -1 1 -395z m454 299 c0 -54 1 -208 1 -343 0
-135 -1 -269 -1 -299 l0 -54 -177 0 c-98 0 -185 2 -194 4 -14 4 -16 46 -16
392 0 213 3 389 8 392 4 3 91 5 193 5 l186 0 0 -97z m-1895 -182 c2 -12 3
-132 3 -267 l-1 -245 -156 0 -156 1 -1 266 -1 266 154 0 c147 0 154 -1 158
-21z m330 -63 c1 -46 -1 -87 -4 -92 -3 -4 -49 -21 -101 -37 l-95 -30 -1 -129
c-2 -179 1 -167 -31 -163 l-28 3 -1 266 -1 266 131 -1 131 -1 0 -82z m589
-215 c-1 -122 -2 -226 -3 -229 0 -3 -46 -6 -100 -6 l-100 1 2 200 2 201 95 31
c52 17 97 30 100 28 3 -1 4 -103 4 -226z m-267 -45 l-2 -188 -127 -2 -128 -2
0 153 0 154 88 26 c48 15 98 31 112 36 61 21 59 28 57 -177z m-322 -43 c1
-157 6 -148 -82 -148 l-53 -1 0 123 0 123 68 21 c37 11 67 21 67 21 0 1 0 -62
0 -139z"/>
</g>
</svg>
